<svg width="220" height="202" viewBox="0 0 220 202" fill="none" xmlns="http://www.w3.org/2000/svg">
<g filter="url(#filter0_dd_178_715)">
<path d="M191 100C191 85.5203 186.563 71.3969 178.3 59.5757C170.037 47.7545 158.355 38.8173 144.864 33.9954C131.372 29.1735 116.735 28.7042 102.969 32.6523C89.2033 36.6003 76.9858 44.7713 68.0001 56.0395L109.045 89.5594C111.179 86.8832 114.081 84.9426 117.35 84.0049C120.62 83.0673 124.096 83.1787 127.3 84.3239C130.504 85.4691 133.279 87.5917 135.241 90.3992C137.204 93.2068 138.257 96.5611 138.257 100H191Z" fill="#FF9431" stroke="white"/>
<path d="M68.2362 56C60.0198 66.2654 54.8817 78.6829 53.4262 91.7921C51.9707 104.901 54.2585 118.157 60.0203 130L107.048 106.742C105.68 103.929 105.137 100.781 105.482 97.6673C105.828 94.5539 107.048 91.6047 109 89.1667L68.2362 56Z" fill="#FFDC67" stroke="white"/>
<path d="M60.0001 130.252C67.1389 144.783 79.1503 156.358 93.9476 162.966C108.745 169.574 125.393 170.798 141 166.424L126.711 115.591C123.005 116.63 119.051 116.339 115.537 114.77C112.022 113.2 109.169 110.451 107.474 107L60.0001 130.252Z" fill="#36B7FF" stroke="white"/>
<path d="M141.091 166C155.453 161.96 168.103 153.324 177.113 141.408C186.123 129.493 191 114.952 191 100H138.854C138.854 103.551 137.695 107.005 135.555 109.835C133.415 112.664 130.411 114.715 127 115.675L141.091 166Z" fill="#1AF7A7" stroke="white"/>
<path d="M144 33L150 15" stroke="#0499EC"/>
<path d="M153.852 12.1193C153.29 12.1193 152.788 12.0227 152.348 11.8295C151.911 11.6364 151.563 11.3679 151.304 11.0241C151.048 10.6776 150.909 10.2756 150.886 9.81818H151.96C151.983 10.0994 152.08 10.3423 152.25 10.5469C152.42 10.7486 152.643 10.9048 152.919 11.0156C153.195 11.1264 153.5 11.1818 153.835 11.1818C154.21 11.1818 154.543 11.1165 154.832 10.9858C155.122 10.8551 155.349 10.6733 155.514 10.4403C155.679 10.2074 155.761 9.9375 155.761 9.63068C155.761 9.30966 155.682 9.02699 155.523 8.78267C155.364 8.53551 155.131 8.34233 154.824 8.20312C154.517 8.06392 154.142 7.99432 153.699 7.99432H153V7.05682H153.699C154.045 7.05682 154.349 6.99432 154.611 6.86932C154.875 6.74432 155.081 6.56818 155.229 6.34091C155.379 6.11364 155.455 5.84659 155.455 5.53977C155.455 5.24432 155.389 4.98722 155.259 4.76847C155.128 4.54972 154.943 4.37926 154.705 4.2571C154.469 4.13494 154.19 4.07386 153.869 4.07386C153.568 4.07386 153.284 4.12926 153.017 4.24006C152.753 4.34801 152.537 4.50568 152.369 4.71307C152.202 4.91761 152.111 5.16477 152.097 5.45455H151.074C151.091 4.99716 151.229 4.59659 151.487 4.25284C151.746 3.90625 152.084 3.63636 152.501 3.44318C152.922 3.25 153.384 3.15341 153.886 3.15341C154.426 3.15341 154.889 3.26278 155.276 3.48153C155.662 3.69744 155.959 3.98295 156.166 4.33807C156.374 4.69318 156.477 5.0767 156.477 5.48864C156.477 5.98011 156.348 6.39915 156.089 6.74574C155.834 7.09233 155.486 7.33239 155.045 7.46591V7.53409C155.597 7.625 156.027 7.85937 156.337 8.23722C156.646 8.61222 156.801 9.0767 156.801 9.63068C156.801 10.1051 156.672 10.5312 156.413 10.9091C156.158 11.2841 155.808 11.5795 155.365 11.7955C154.922 12.0114 154.418 12.1193 153.852 12.1193ZM161.493 12.1193C160.93 12.1193 160.429 12.0227 159.989 11.8295C159.551 11.6364 159.203 11.3679 158.945 11.0241C158.689 10.6776 158.55 10.2756 158.527 9.81818H159.601C159.624 10.0994 159.72 10.3423 159.891 10.5469C160.061 10.7486 160.284 10.9048 160.56 11.0156C160.835 11.1264 161.141 11.1818 161.476 11.1818C161.851 11.1818 162.183 11.1165 162.473 10.9858C162.763 10.8551 162.99 10.6733 163.155 10.4403C163.32 10.2074 163.402 9.9375 163.402 9.63068C163.402 9.30966 163.322 9.02699 163.163 8.78267C163.004 8.53551 162.771 8.34233 162.464 8.20312C162.158 8.06392 161.783 7.99432 161.339 7.99432H160.641V7.05682H161.339C161.686 7.05682 161.99 6.99432 162.251 6.86932C162.516 6.74432 162.722 6.56818 162.869 6.34091C163.02 6.11364 163.095 5.84659 163.095 5.53977C163.095 5.24432 163.03 4.98722 162.899 4.76847C162.768 4.54972 162.584 4.37926 162.345 4.2571C162.109 4.13494 161.831 4.07386 161.51 4.07386C161.209 4.07386 160.925 4.12926 160.658 4.24006C160.393 4.34801 160.178 4.50568 160.01 4.71307C159.842 4.91761 159.751 5.16477 159.737 5.45455H158.714C158.732 4.99716 158.869 4.59659 159.128 4.25284C159.386 3.90625 159.724 3.63636 160.142 3.44318C160.563 3.25 161.024 3.15341 161.527 3.15341C162.067 3.15341 162.53 3.26278 162.916 3.48153C163.303 3.69744 163.599 3.98295 163.807 4.33807C164.014 4.69318 164.118 5.0767 164.118 5.48864C164.118 5.98011 163.989 6.39915 163.73 6.74574C163.474 7.09233 163.126 7.33239 162.686 7.46591V7.53409C163.237 7.625 163.668 7.85937 163.977 8.23722C164.287 8.61222 164.442 9.0767 164.442 9.63068C164.442 10.1051 164.313 10.5312 164.054 10.9091C163.798 11.2841 163.449 11.5795 163.006 11.7955C162.563 12.0114 162.058 12.1193 161.493 12.1193ZM170.634 10.3636V9.90341C170.634 9.58523 170.699 9.29403 170.83 9.02983C170.963 8.76278 171.156 8.54972 171.409 8.39062C171.665 8.22869 171.974 8.14773 172.338 8.14773C172.707 8.14773 173.017 8.22869 173.267 8.39062C173.517 8.54972 173.706 8.76278 173.834 9.02983C173.962 9.29403 174.026 9.58523 174.026 9.90341V10.3636C174.026 10.6818 173.96 10.9744 173.83 11.2415C173.702 11.5057 173.511 11.7187 173.259 11.8807C173.009 12.0398 172.702 12.1193 172.338 12.1193C171.969 12.1193 171.658 12.0398 171.405 11.8807C171.152 11.7187 170.96 11.5057 170.83 11.2415C170.699 10.9744 170.634 10.6818 170.634 10.3636ZM171.503 9.90341V10.3636C171.503 10.6278 171.565 10.8651 171.69 11.0753C171.815 11.2827 172.031 11.3864 172.338 11.3864C172.636 11.3864 172.847 11.2827 172.969 11.0753C173.094 10.8651 173.156 10.6278 173.156 10.3636V9.90341C173.156 9.6392 173.097 9.40341 172.977 9.19602C172.858 8.9858 172.645 8.88068 172.338 8.88068C172.04 8.88068 171.825 8.9858 171.695 9.19602C171.567 9.40341 171.503 9.6392 171.503 9.90341ZM166.287 5.36932V4.90909C166.287 4.59091 166.352 4.29972 166.483 4.03551C166.616 3.76847 166.81 3.5554 167.062 3.39631C167.318 3.23437 167.628 3.15341 167.991 3.15341C168.361 3.15341 168.67 3.23437 168.92 3.39631C169.17 3.5554 169.359 3.76847 169.487 4.03551C169.615 4.29972 169.679 4.59091 169.679 4.90909V5.36932C169.679 5.6875 169.614 5.98011 169.483 6.24716C169.355 6.51136 169.165 6.72443 168.912 6.88636C168.662 7.04545 168.355 7.125 167.991 7.125C167.622 7.125 167.311 7.04545 167.058 6.88636C166.805 6.72443 166.614 6.51136 166.483 6.24716C166.352 5.98011 166.287 5.6875 166.287 5.36932ZM167.156 4.90909V5.36932C167.156 5.63352 167.219 5.87074 167.344 6.08097C167.469 6.28835 167.685 6.39205 167.991 6.39205C168.29 6.39205 168.5 6.28835 168.622 6.08097C168.747 5.87074 168.81 5.63352 168.81 5.36932V4.90909C168.81 4.64489 168.75 4.40909 168.631 4.2017C168.511 3.99148 168.298 3.88636 167.991 3.88636C167.693 3.88636 167.479 3.99148 167.348 4.2017C167.22 4.40909 167.156 4.64489 167.156 4.90909ZM166.611 12L172.611 3.27273H173.582L167.582 12H166.611Z" fill="#0499EC"/>
<path d="M51 93L33 91L51 93Z" fill="#0499EC"/>
<path d="M51 93L33 91" stroke="#0499EC"/>
<path d="M6.37607 93V92.233L9.25675 89.0795C9.59482 88.7102 9.87322 88.3892 10.092 88.1165C10.3107 87.8409 10.4727 87.5824 10.5778 87.3409C10.6857 87.0966 10.7397 86.8409 10.7397 86.5739C10.7397 86.267 10.6658 86.0014 10.5181 85.777C10.3732 85.5526 10.1744 85.3793 9.92152 85.2571C9.66868 85.1349 9.38459 85.0739 9.06925 85.0739C8.73402 85.0739 8.44141 85.1435 8.19141 85.2827C7.94425 85.419 7.75249 85.6108 7.61612 85.858C7.4826 86.1051 7.41584 86.3949 7.41584 86.7273H6.41016C6.41016 86.2159 6.52805 85.767 6.76385 85.3807C6.99964 84.9943 7.32067 84.6932 7.72692 84.4773C8.13601 84.2614 8.59482 84.1534 9.10334 84.1534C9.6147 84.1534 10.0678 84.2614 10.4627 84.4773C10.8576 84.6932 11.1673 84.9844 11.3917 85.3509C11.6161 85.7173 11.7283 86.125 11.7283 86.5739C11.7283 86.8949 11.6701 87.2088 11.5536 87.5156C11.44 87.8196 11.2411 88.1591 10.957 88.5341C10.6758 88.9062 10.2852 89.3608 9.78516 89.8977L7.82493 91.9943V92.0625H11.8817V93H6.37607ZM13.2496 91.2102V90.3409L17.0849 84.2727H17.7156V85.6193H17.2894L14.3917 90.2045V90.2727H19.5565V91.2102H13.2496ZM17.3576 93V90.946V90.5412V84.2727H18.3633V93H17.3576ZM25.6023 91.3636V90.9034C25.6023 90.5852 25.6676 90.294 25.7983 90.0298C25.9318 89.7628 26.125 89.5497 26.3778 89.3906C26.6335 89.2287 26.9432 89.1477 27.3068 89.1477C27.6761 89.1477 27.9858 89.2287 28.2358 89.3906C28.4858 89.5497 28.6747 89.7628 28.8026 90.0298C28.9304 90.294 28.9943 90.5852 28.9943 90.9034V91.3636C28.9943 91.6818 28.929 91.9744 28.7983 92.2415C28.6705 92.5057 28.4801 92.7187 28.2273 92.8807C27.9773 93.0398 27.6705 93.1193 27.3068 93.1193C26.9375 93.1193 26.6264 93.0398 26.3736 92.8807C26.1207 92.7187 25.929 92.5057 25.7983 92.2415C25.6676 91.9744 25.6023 91.6818 25.6023 91.3636ZM26.4716 90.9034V91.3636C26.4716 91.6278 26.5341 91.8651 26.6591 92.0753C26.7841 92.2827 27 92.3864 27.3068 92.3864C27.6051 92.3864 27.8153 92.2827 27.9375 92.0753C28.0625 91.8651 28.125 91.6278 28.125 91.3636V90.9034C28.125 90.6392 28.0653 90.4034 27.946 90.196C27.8267 89.9858 27.6136 89.8807 27.3068 89.8807C27.0085 89.8807 26.794 89.9858 26.6634 90.196C26.5355 90.4034 26.4716 90.6392 26.4716 90.9034ZM21.2557 86.3693V85.9091C21.2557 85.5909 21.321 85.2997 21.4517 85.0355C21.5852 84.7685 21.7784 84.5554 22.0312 84.3963C22.2869 84.2344 22.5966 84.1534 22.9602 84.1534C23.3295 84.1534 23.6392 84.2344 23.8892 84.3963C24.1392 84.5554 24.3281 84.7685 24.456 85.0355C24.5838 85.2997 24.6477 85.5909 24.6477 85.9091V86.3693C24.6477 86.6875 24.5824 86.9801 24.4517 87.2472C24.3239 87.5114 24.1335 87.7244 23.8807 87.8864C23.6307 88.0455 23.3239 88.125 22.9602 88.125C22.5909 88.125 22.2798 88.0455 22.027 87.8864C21.7741 87.7244 21.5824 87.5114 21.4517 87.2472C21.321 86.9801 21.2557 86.6875 21.2557 86.3693ZM22.125 85.9091V86.3693C22.125 86.6335 22.1875 86.8707 22.3125 87.081C22.4375 87.2884 22.6534 87.392 22.9602 87.392C23.2585 87.392 23.4688 87.2884 23.5909 87.081C23.7159 86.8707 23.7784 86.6335 23.7784 86.3693V85.9091C23.7784 85.6449 23.7188 85.4091 23.5994 85.2017C23.4801 84.9915 23.267 84.8864 22.9602 84.8864C22.6619 84.8864 22.4474 84.9915 22.3168 85.2017C22.1889 85.4091 22.125 85.6449 22.125 85.9091ZM21.5795 93L27.5795 84.2727H28.5511L22.5511 93H21.5795Z" fill="#0499EC"/>
<path d="M92 167L85 183L92 167Z" fill="#0499EC"/>
<path d="M92 167L85 183" stroke="#0499EC"/>
<path d="M60.6222 193V192.233L63.5028 189.08C63.8409 188.71 64.1193 188.389 64.3381 188.116C64.5568 187.841 64.7188 187.582 64.8239 187.341C64.9318 187.097 64.9858 186.841 64.9858 186.574C64.9858 186.267 64.9119 186.001 64.7642 185.777C64.6193 185.553 64.4205 185.379 64.1676 185.257C63.9148 185.135 63.6307 185.074 63.3153 185.074C62.9801 185.074 62.6875 185.143 62.4375 185.283C62.1903 185.419 61.9986 185.611 61.8622 185.858C61.7287 186.105 61.6619 186.395 61.6619 186.727H60.6562C60.6562 186.216 60.7741 185.767 61.0099 185.381C61.2457 184.994 61.5668 184.693 61.973 184.477C62.3821 184.261 62.8409 184.153 63.3494 184.153C63.8608 184.153 64.3139 184.261 64.7088 184.477C65.1037 184.693 65.4134 184.984 65.6378 185.351C65.8622 185.717 65.9744 186.125 65.9744 186.574C65.9744 186.895 65.9162 187.209 65.7997 187.516C65.6861 187.82 65.4872 188.159 65.2031 188.534C64.9219 188.906 64.5312 189.361 64.0312 189.898L62.071 191.994V192.062H66.1278V193H60.6222ZM67.8878 193V192.233L70.7685 189.08C71.1065 188.71 71.3849 188.389 71.6037 188.116C71.8224 187.841 71.9844 187.582 72.0895 187.341C72.1974 187.097 72.2514 186.841 72.2514 186.574C72.2514 186.267 72.1776 186.001 72.0298 185.777C71.8849 185.553 71.6861 185.379 71.4332 185.257C71.1804 185.135 70.8963 185.074 70.581 185.074C70.2457 185.074 69.9531 185.143 69.7031 185.283C69.456 185.419 69.2642 185.611 69.1278 185.858C68.9943 186.105 68.9276 186.395 68.9276 186.727H67.9219C67.9219 186.216 68.0398 185.767 68.2756 185.381C68.5114 184.994 68.8324 184.693 69.2386 184.477C69.6477 184.261 70.1065 184.153 70.6151 184.153C71.1264 184.153 71.5795 184.261 71.9744 184.477C72.3693 184.693 72.679 184.984 72.9034 185.351C73.1278 185.717 73.2401 186.125 73.2401 186.574C73.2401 186.895 73.1818 187.209 73.0653 187.516C72.9517 187.82 72.7528 188.159 72.4688 188.534C72.1875 188.906 71.7969 189.361 71.2969 189.898L69.3366 191.994V192.062H73.3935V193H67.8878ZM79.6023 191.364V190.903C79.6023 190.585 79.6676 190.294 79.7983 190.03C79.9318 189.763 80.125 189.55 80.3778 189.391C80.6335 189.229 80.9432 189.148 81.3068 189.148C81.6761 189.148 81.9858 189.229 82.2358 189.391C82.4858 189.55 82.6747 189.763 82.8026 190.03C82.9304 190.294 82.9943 190.585 82.9943 190.903V191.364C82.9943 191.682 82.929 191.974 82.7983 192.241C82.6705 192.506 82.4801 192.719 82.2273 192.881C81.9773 193.04 81.6705 193.119 81.3068 193.119C80.9375 193.119 80.6264 193.04 80.3736 192.881C80.1207 192.719 79.929 192.506 79.7983 192.241C79.6676 191.974 79.6023 191.682 79.6023 191.364ZM80.4716 190.903V191.364C80.4716 191.628 80.5341 191.865 80.6591 192.075C80.7841 192.283 81 192.386 81.3068 192.386C81.6051 192.386 81.8153 192.283 81.9375 192.075C82.0625 191.865 82.125 191.628 82.125 191.364V190.903C82.125 190.639 82.0653 190.403 81.946 190.196C81.8267 189.986 81.6136 189.881 81.3068 189.881C81.0085 189.881 80.794 189.986 80.6634 190.196C80.5355 190.403 80.4716 190.639 80.4716 190.903ZM75.2557 186.369V185.909C75.2557 185.591 75.321 185.3 75.4517 185.036C75.5852 184.768 75.7784 184.555 76.0312 184.396C76.2869 184.234 76.5966 184.153 76.9602 184.153C77.3295 184.153 77.6392 184.234 77.8892 184.396C78.1392 184.555 78.3281 184.768 78.456 185.036C78.5838 185.3 78.6477 185.591 78.6477 185.909V186.369C78.6477 186.687 78.5824 186.98 78.4517 187.247C78.3239 187.511 78.1335 187.724 77.8807 187.886C77.6307 188.045 77.3239 188.125 76.9602 188.125C76.5909 188.125 76.2798 188.045 76.027 187.886C75.7741 187.724 75.5824 187.511 75.4517 187.247C75.321 186.98 75.2557 186.687 75.2557 186.369ZM76.125 185.909V186.369C76.125 186.634 76.1875 186.871 76.3125 187.081C76.4375 187.288 76.6534 187.392 76.9602 187.392C77.2585 187.392 77.4688 187.288 77.5909 187.081C77.7159 186.871 77.7784 186.634 77.7784 186.369V185.909C77.7784 185.645 77.7188 185.409 77.5994 185.202C77.4801 184.991 77.267 184.886 76.9602 184.886C76.6619 184.886 76.4474 184.991 76.3168 185.202C76.1889 185.409 76.125 185.645 76.125 185.909ZM75.5795 193L81.5795 184.273H82.5511L76.5511 193H75.5795Z" fill="#0499EC"/>
<path d="M177 144L191 155L177 144Z" fill="#0499EC"/>
<path d="M177 144L191 155" stroke="#0499EC"/>
<path d="M193.903 161V160.233L196.784 157.08C197.122 156.71 197.401 156.389 197.619 156.116C197.838 155.841 198 155.582 198.105 155.341C198.213 155.097 198.267 154.841 198.267 154.574C198.267 154.267 198.193 154.001 198.045 153.777C197.901 153.553 197.702 153.379 197.449 153.257C197.196 153.135 196.912 153.074 196.597 153.074C196.261 153.074 195.969 153.143 195.719 153.283C195.472 153.419 195.28 153.611 195.143 153.858C195.01 154.105 194.943 154.395 194.943 154.727H193.938C193.938 154.216 194.055 153.767 194.291 153.381C194.527 152.994 194.848 152.693 195.254 152.477C195.663 152.261 196.122 152.153 196.631 152.153C197.142 152.153 197.595 152.261 197.99 152.477C198.385 152.693 198.695 152.984 198.919 153.351C199.143 153.717 199.256 154.125 199.256 154.574C199.256 154.895 199.197 155.209 199.081 155.516C198.967 155.82 198.768 156.159 198.484 156.534C198.203 156.906 197.812 157.361 197.312 157.898L195.352 159.994V160.062H199.409V161H193.903ZM204.237 152.273V161H203.18V153.381H203.129L200.999 154.795V153.722L203.18 152.273H204.237ZM211.196 159.364V158.903C211.196 158.585 211.261 158.294 211.392 158.03C211.526 157.763 211.719 157.55 211.972 157.391C212.227 157.229 212.537 157.148 212.901 157.148C213.27 157.148 213.58 157.229 213.83 157.391C214.08 157.55 214.268 157.763 214.396 158.03C214.524 158.294 214.588 158.585 214.588 158.903V159.364C214.588 159.682 214.523 159.974 214.392 160.241C214.264 160.506 214.074 160.719 213.821 160.881C213.571 161.04 213.264 161.119 212.901 161.119C212.531 161.119 212.22 161.04 211.967 160.881C211.714 160.719 211.523 160.506 211.392 160.241C211.261 159.974 211.196 159.682 211.196 159.364ZM212.065 158.903V159.364C212.065 159.628 212.128 159.865 212.253 160.075C212.378 160.283 212.594 160.386 212.901 160.386C213.199 160.386 213.409 160.283 213.531 160.075C213.656 159.865 213.719 159.628 213.719 159.364V158.903C213.719 158.639 213.659 158.403 213.54 158.196C213.42 157.986 213.207 157.881 212.901 157.881C212.602 157.881 212.388 157.986 212.257 158.196C212.129 158.403 212.065 158.639 212.065 158.903ZM206.849 154.369V153.909C206.849 153.591 206.915 153.3 207.045 153.036C207.179 152.768 207.372 152.555 207.625 152.396C207.881 152.234 208.19 152.153 208.554 152.153C208.923 152.153 209.233 152.234 209.483 152.396C209.733 152.555 209.922 152.768 210.05 153.036C210.178 153.3 210.241 153.591 210.241 153.909V154.369C210.241 154.687 210.176 154.98 210.045 155.247C209.918 155.511 209.727 155.724 209.474 155.886C209.224 156.045 208.918 156.125 208.554 156.125C208.185 156.125 207.874 156.045 207.621 155.886C207.368 155.724 207.176 155.511 207.045 155.247C206.915 154.98 206.849 154.687 206.849 154.369ZM207.719 153.909V154.369C207.719 154.634 207.781 154.871 207.906 155.081C208.031 155.288 208.247 155.392 208.554 155.392C208.852 155.392 209.063 155.288 209.185 155.081C209.31 154.871 209.372 154.634 209.372 154.369V153.909C209.372 153.645 209.312 153.409 209.193 153.202C209.074 152.991 208.861 152.886 208.554 152.886C208.256 152.886 208.041 152.991 207.911 153.202C207.783 153.409 207.719 153.645 207.719 153.909ZM207.173 161L213.173 152.273H214.145L208.145 161H207.173Z" fill="#0499EC"/>
</g>
<defs>
<filter id="filter0_dd_178_715" x="2.3761" y="3.15332" width="216.212" height="197.966" filterUnits="userSpaceOnUse" color-interpolation-filters="sRGB">
<feFlood flood-opacity="0" result="BackgroundImageFix"/>
<feColorMatrix in="SourceAlpha" type="matrix" values="0 0 0 0 0 0 0 0 0 0 0 0 0 0 0 0 0 0 127 0" result="hardAlpha"/>
<feOffset dy="4"/>
<feGaussianBlur stdDeviation="2"/>
<feComposite in2="hardAlpha" operator="out"/>
<feColorMatrix type="matrix" values="0 0 0 0 0 0 0 0 0 0 0 0 0 0 0 0 0 0 0.25 0"/>
<feBlend mode="normal" in2="BackgroundImageFix" result="effect1_dropShadow_178_715"/>
<feColorMatrix in="SourceAlpha" type="matrix" values="0 0 0 0 0 0 0 0 0 0 0 0 0 0 0 0 0 0 127 0" result="hardAlpha"/>
<feOffset dy="4"/>
<feGaussianBlur stdDeviation="2"/>
<feComposite in2="hardAlpha" operator="out"/>
<feColorMatrix type="matrix" values="0 0 0 0 0 0 0 0 0 0 0 0 0 0 0 0 0 0 0.25 0"/>
<feBlend mode="normal" in2="effect1_dropShadow_178_715" result="effect2_dropShadow_178_715"/>
<feBlend mode="normal" in="SourceGraphic" in2="effect2_dropShadow_178_715" result="shape"/>
</filter>
</defs>
</svg>
